# xmcd CD database file
#
# Track frame offsets:
#	150
#	16872
#	29537
#	50282
#	62245
#	74435
#	101580
#	120927
#	143237
#	163992
#	181984
#	206580
#
# Disc length: 3018 seconds
#
# Revision: 0
# Processed by: cddbd v1.5.1PL0 Copyright (c) Steve Scherf et al.
# Submitted via: CDex 1.51
#
DISCID=a80bc80c
DTITLE=Arve Tellefsen - Intermezzo
DYEAR=2002
DGENRE=New Age
TTITLE0=Once upon a time in the west ( Ennio Morricone )
TTITLE1=Cavalleria Rusticana ( Pietro Mascagni )
TTITLE2=Limelight ( Charie Chaplin )
TTITLE3=Allegro ( Joseph Hector Fiocco )
TTITLE4=Ave Maria ( Johann Sebstian Bach )
TTITLE5=Adagio ( Tomaso Albinoni )
TTITLE6=Koral ( Hans Leo Hassler )
TTITLE7=Air ( Johann Sebastian Bach )
TTITLE8=Tango Jalousie ( Jacob Gade )
TTITLE9=To Religiose Folketoner ( TRAD )
TTITLE10=Peace ( An Gabarek )
TTITLE11=The Mission ( Ennio Morricone )
EXTD=YEAR: 2002
EXTT0=
EXTT1=
EXTT2=
EXTT3=
EXTT4=
EXTT5=
EXTT6=
EXTT7=
EXTT8=
EXTT9=
EXTT10=
EXTT11=
PLAYORDER=
